<?xml version="1.0" standalone="no"?>
<!DOCTYPE svg PUBLIC "-//W3C//DTD SVG 20010904//EN"
 "http://www.w3.org/TR/2001/REC-SVG-20010904/DTD/svg10.dtd">
<svg version="1.0" xmlns="http://www.w3.org/2000/svg"
 width="512.000000pt" height="512.000000pt" viewBox="0 0 512.000000 512.000000"
 preserveAspectRatio="xMidYMid meet">
<metadata>
Created by potrace 1.16, written by Peter Selinger 2001-2019
</metadata>
<g transform="translate(0.000000,512.000000) scale(0.100000,-0.100000)"
fill="#000000" stroke="none">
<path d="M2105 4914 c-22 -8 -58 -29 -80 -47 -44 -35 -1509 -1343 -1667 -1489
l-98 -90 0 -311 c1 -239 4 -316 14 -329 11 -15 135 93 1125 979 l1113 995 -6
44 c-19 141 -161 265 -301 263 -33 0 -78 -7 -100 -15z m183 -5 c18 -6 30 -15
27 -19 -3 -4 2 -11 11 -14 8 -3 12 -2 9 4 -15 24 10 7 49 -33 22 -23 32 -31
21 -17 l-20 25 26 -23 c37 -32 78 -112 85 -163 5 -39 3 -47 -23 -69 l-28 -25
23 26 c17 19 22 36 19 55 l-4 29 -2 -30 c-1 -22 -18 -48 -64 -96 -34 -36 -53
-54 -42 -39 11 14 -9 -4 -45 -40 -36 -36 -58 -57 -50 -45 8 11 -14 -9 -50 -45
-36 -37 -58 -57 -50 -46 8 12 -12 -6 -45 -40 -33 -33 -53 -51 -45 -39 8 11
-14 -9 -50 -45 -36 -37 -56 -55 -45 -40 11 14 -9 -4 -45 -40 -36 -37 -58 -57
-50 -45 8 11 -14 -9 -50 -45 -36 -37 -56 -55 -45 -40 11 14 -9 -4 -45 -40 -36
-37 -58 -57 -50 -45 8 11 -14 -9 -50 -45 -36 -37 -56 -55 -45 -40 11 14 -9 -4
-45 -40 -36 -37 -58 -57 -50 -45 8 11 -14 -9 -50 -45 -36 -37 -56 -55 -45 -40
11 14 -9 -4 -45 -40 -36 -37 -58 -57 -50 -45 8 11 -14 -9 -50 -45 -36 -37 -56
-55 -45 -40 11 14 -9 -4 -45 -40 -36 -37 -58 -57 -50 -45 8 11 -14 -9 -50 -45
-36 -37 -56 -55 -45 -40 11 14 -9 -4 -45 -40 -36 -37 -58 -57 -50 -45 8 11
-14 -9 -50 -45 -36 -37 -56 -55 -45 -40 11 14 -9 -4 -45 -40 -36 -37 -58 -57
-50 -46 8 12 -14 -8 -50 -45 -36 -36 -56 -54 -45 -39 11 14 -9 -4 -45 -40 -36
-37 -58 -57 -50 -45 8 11 -14 -9 -50 -45 -36 -37 -56 -55 -45 -40 11 14 -9 -4
-45 -40 -36 -37 -58 -57 -50 -45 8 11 -7 -3 -35 -31 -27 -29 -56 -50 -62 -47
-10 4 -13 76 -13 317 l0 312 42 39 c32 30 36 32 18 10 -14 -17 4 -1 40 35 36
37 58 57 50 45 -8 -11 14 9 50 45 36 37 56 55 45 40 -11 -14 9 4 45 40 36 37
58 57 50 45 -8 -11 12 7 45 40 33 34 53 52 45 40 -8 -11 14 9 50 45 36 37 58
57 50 45 -8 -11 14 9 50 45 36 37 56 55 45 40 -11 -14 9 4 45 40 36 37 58 57
50 46 -8 -12 12 6 45 40 33 33 53 51 45 39 -8 -11 14 9 50 45 36 37 58 57 50
45 -8 -11 14 9 50 45 36 37 56 55 45 40 -11 -14 9 4 45 40 36 37 58 57 50 46
-8 -12 12 6 45 40 33 33 53 51 45 39 -8 -11 14 9 50 45 36 37 58 57 50 46 -8
-12 14 8 50 45 36 36 56 54 45 39 -11 -14 9 4 45 40 36 37 56 55 45 40 -11
-14 9 4 45 40 36 37 58 57 50 45 -8 -11 14 9 50 45 36 37 56 55 45 40 -11 -14
6 1 39 35 32 33 55 53 50 45 -5 -9 2 -4 15 10 13 14 20 18 16 10 -4 -10 -1 -9
8 2 8 10 17 15 20 11 4 -3 7 -1 7 5 0 6 7 9 17 5 10 -4 14 -2 10 5 -4 6 1 13
10 15 35 9 131 7 161 -4z"/>
<path d="M2681 4400 c26 -30 51 -55 57 -55 6 0 27 -19 47 -43 20 -23 40 -40
44 -38 4 3 24 -15 45 -40 20 -24 41 -42 45 -40 4 3 24 -15 45 -40 20 -24 41
-42 45 -40 4 3 24 -15 45 -40 20 -24 41 -42 45 -40 4 3 24 -15 45 -40 20 -24
41 -42 45 -39 5 2 23 -14 40 -35 18 -22 36 -38 41 -35 4 3 24 -15 45 -40 20
-25 40 -43 45 -40 4 3 24 -15 45 -40 20 -25 40 -43 45 -40 4 3 24 -15 45 -40
20 -25 40 -43 45 -40 4 3 24 -15 45 -40 20 -25 40 -43 45 -40 4 3 24 -15 45
-40 20 -25 40 -43 45 -40 4 3 24 -15 45 -40 20 -25 40 -43 45 -40 4 3 24 -15
45 -40 20 -25 40 -43 45 -40 4 3 24 -15 45 -40 20 -25 40 -43 44 -41 4 3 24
-15 45 -40 20 -24 41 -42 45 -40 4 3 24 -15 45 -40 20 -24 41 -42 45 -40 4 3
25 -15 45 -40 21 -25 41 -43 44 -40 3 3 12 0 20 -7 13 -10 14 -9 8 1 -8 13
-1586 1418 -1631 1452 -11 8 1 -10 26 -40z"/>
<path d="M2612 4118 l-2 -317 98 -88 c181 -164 1214 -1078 1222 -1081 3 -1 78
61 166 139 208 185 219 196 200 196 -9 0 -28 -15 -42 -34 -14 -18 -29 -31 -34
-28 -5 3 -26 -15 -46 -39 -21 -25 -41 -43 -45 -40 -4 2 -26 -18 -50 -45 -23
-28 -46 -49 -51 -48 -5 1 -26 -18 -46 -42 l-38 -43 -31 26 c-16 14 -32 23 -35
20 -3 -2 -22 16 -42 41 -21 25 -41 43 -46 40 -4 -3 -24 15 -45 40 -20 25 -40
43 -44 41 -4 -3 -24 15 -45 40 -20 24 -41 42 -45 40 -4 -3 -24 15 -45 40 -20
24 -41 42 -45 39 -5 -2 -23 14 -40 35 -18 22 -36 38 -41 35 -4 -3 -24 15 -45
40 -20 25 -40 43 -45 40 -4 -3 -24 15 -45 40 -20 25 -40 43 -44 41 -4 -3 -24
15 -45 40 -20 24 -41 42 -45 40 -4 -3 -24 15 -45 40 -20 24 -41 42 -45 40 -4
-3 -24 15 -45 40 -20 24 -41 42 -45 39 -5 -2 -23 14 -40 35 -18 22 -36 38 -41
35 -4 -3 -24 15 -45 40 -20 25 -40 43 -45 40 -4 -3 -24 15 -45 40 -20 25 -40
43 -44 41 -4 -3 -25 16 -47 42 l-39 47 -5 315 -5 315 -5 -320 -5 -320 -5 320
-5 320 -3 -317z"/>
<path d="M1075 2418 c-288 -260 -278 -248 -258 -271 19 -21 1615 -1442 1648
-1467 11 -8 -1 10 -26 40 -26 30 -51 55 -57 55 -6 0 -27 19 -47 43 -20 23 -40
40 -44 38 -4 -3 -24 15 -45 40 -20 24 -41 42 -45 40 -4 -3 -24 15 -45 40 -20
24 -41 42 -46 39 -4 -3 -24 15 -45 40 -20 25 -40 43 -45 40 -4 -3 -24 15 -45
40 -20 25 -40 43 -45 40 -4 -3 -24 15 -45 40 -20 25 -40 43 -45 40 -4 -3 -24
15 -45 40 -20 25 -40 43 -45 40 -4 -3 -24 15 -45 40 -20 25 -40 43 -45 40 -4
-3 -24 15 -45 40 -20 25 -40 43 -45 40 -4 -3 -24 15 -45 40 -20 25 -40 43 -45
40 -4 -3 -24 15 -45 40 -20 25 -40 43 -45 40 -4 -3 -24 15 -45 40 -20 25 -40
43 -45 40 -4 -3 -24 15 -45 40 -20 25 -40 43 -45 40 -4 -3 -24 15 -45 40 -20
25 -40 43 -45 40 -4 -3 -24 15 -45 40 -20 25 -40 43 -45 40 -4 -3 -24 15 -45
40 -20 25 -40 43 -45 40 -4 -3 -24 15 -45 40 -20 25 -40 43 -45 40 -10 -6 -27
16 -25 35 0 8 6 14 13 13 6 -2 28 17 48 42 21 24 41 42 45 39 4 -2 26 18 50
46 23 27 45 47 50 45 4 -3 25 15 45 39 21 25 41 43 45 40 4 -2 18 8 31 24 l23
28 23 -28 c13 -15 27 -26 31 -24 4 3 24 -15 45 -40 20 -24 41 -42 45 -40 4 3
24 -15 45 -40 20 -24 41 -42 45 -40 4 3 24 -15 45 -40 20 -24 41 -42 45 -40 4
3 24 -15 45 -40 20 -24 41 -42 45 -39 5 2 23 -14 40 -35 18 -22 36 -38 41 -35
4 3 24 -15 45 -40 20 -25 40 -43 45 -40 4 3 24 -15 45 -40 20 -25 40 -43 45
-40 4 3 24 -15 45 -40 20 -25 40 -43 45 -40 4 3 24 -15 45 -40 20 -25 40 -43
45 -40 4 3 24 -15 45 -40 20 -25 40 -43 45 -40 4 3 24 -15 45 -40 20 -25 40
-43 44 -41 4 3 24 -15 45 -40 20 -24 41 -42 45 -40 4 3 24 -15 45 -40 20 -24
41 -42 45 -40 4 3 25 -16 47 -42 l39 -47 5 -315 5 -315 5 320 5 320 5 -320 6
-320 -1 320 0 320 -660 587 c-363 323 -664 587 -670 587 -5 0 -50 -36 -100
-81z"/>
<path d="M3721 1493 l-1113 -996 6 -43 c13 -97 90 -195 187 -239 52 -23 72
-27 128 -23 41 2 83 12 111 26 25 12 119 88 210 170 91 81 464 415 830 741
366 327 691 619 723 650 l57 55 0 311 c-1 237 -4 314 -13 327 -12 15 -136 -93
-1126 -979z m1129 653 l0 -312 -42 -39 c-33 -31 -37 -33 -18 -9 14 16 -4 0
-40 -36 -36 -36 -58 -57 -50 -45 8 11 -14 -9 -50 -45 -36 -37 -56 -55 -45 -40
11 14 -9 -4 -45 -40 -36 -37 -58 -57 -50 -45 8 11 -14 -9 -50 -45 -36 -37 -56
-55 -45 -40 11 14 -9 -4 -45 -40 -36 -37 -58 -57 -50 -45 8 11 -14 -9 -50 -45
-36 -37 -56 -55 -45 -40 11 14 -9 -4 -45 -40 -36 -37 -58 -57 -50 -45 8 11
-14 -9 -50 -45 -36 -37 -56 -55 -45 -40 11 14 -9 -4 -45 -40 -36 -37 -58 -57
-50 -45 8 11 -14 -9 -50 -45 -36 -37 -56 -55 -45 -40 11 14 -9 -4 -45 -40 -36
-37 -58 -57 -50 -45 8 11 -14 -9 -50 -45 -36 -37 -56 -55 -45 -40 11 14 -9 -4
-45 -40 -36 -37 -58 -57 -50 -45 8 11 -14 -9 -50 -45 -36 -37 -56 -55 -45 -40
11 14 -9 -4 -45 -40 -36 -37 -58 -57 -50 -45 8 11 -12 -7 -45 -40 -33 -34 -53
-52 -45 -40 8 11 -14 -9 -50 -45 -36 -37 -56 -55 -45 -40 11 14 -6 -1 -39 -35
-32 -33 -55 -53 -50 -45 5 9 -2 4 -15 -10 -13 -14 -20 -18 -16 -10 4 10 1 9
-8 -2 -8 -10 -17 -15 -20 -11 -4 3 -7 1 -7 -5 0 -6 -7 -9 -17 -5 -10 4 -14 2
-10 -4 18 -28 -130 -31 -190 -3 -24 10 -43 24 -43 30 0 5 -4 9 -8 8 -4 -2 -21
11 -37 27 -20 21 -23 22 -10 5 l20 -25 -26 23 c-37 32 -78 112 -85 163 -5 39
-3 47 23 69 l28 25 -23 -26 c-17 -19 -22 -36 -19 -55 l4 -29 2 30 c1 22 18 48
64 96 34 36 53 54 42 39 -11 -14 9 4 45 40 36 37 58 57 50 45 -8 -11 14 9 50
45 36 37 56 55 45 40 -11 -14 9 4 45 40 36 37 58 57 50 45 -8 -11 14 9 50 45
36 37 56 55 45 40 -11 -14 9 4 45 40 36 37 58 57 50 45 -8 -11 14 9 50 45 36
37 56 55 45 40 -11 -14 9 4 45 40 36 37 58 57 50 45 -8 -11 14 9 50 45 36 37
56 55 45 40 -11 -14 9 4 45 40 36 37 58 57 50 45 -8 -11 14 9 50 45 36 37 56
55 45 40 -11 -14 9 4 45 40 36 37 58 57 50 45 -8 -11 12 7 45 40 33 34 53 52
45 40 -8 -11 14 9 50 45 36 37 58 57 50 46 -8 -12 14 8 50 45 36 36 56 54 45
39 -11 -14 9 4 45 40 36 37 58 57 50 45 -8 -11 12 7 45 40 33 34 53 52 45 40
-8 -11 14 9 50 45 36 37 58 57 50 46 -8 -12 12 6 45 40 33 33 53 51 45 39 -8
-11 14 9 50 45 36 37 58 57 50 46 -8 -12 12 6 45 40 33 33 53 51 45 39 -8 -11
14 9 50 45 36 37 56 55 45 40 -11 -14 4 0 33 31 33 36 59 56 68 52 12 -4 14
-56 14 -317z"/>
</g>
</svg>
